<svg xmlns="http://www.w3.org/2000/svg" viewBox="0 0 800 600">
  <defs>
    <linearGradient id="bg" x1="0%" y1="0%" x2="100%" y2="100%">
      <stop offset="0%" style="stop-color:#1a365d"/>
      <stop offset="100%" style="stop-color:#2d5aa0"/>
    </linearGradient>
    <linearGradient id="house" x1="0%" y1="0%" x2="100%" y2="100%">
      <stop offset="0%" style="stop-color:#4ade80"/>
      <stop offset="100%" style="stop-color:#22c55e"/>
    </linearGradient>
    <filter id="glow">
      <feGaussianBlur stdDeviation="3" result="coloredBlur"/>
      <feMerge>
        <feMergeNode in="coloredBlur"/>
        <feMergeNode in="SourceGraphic"/>
      </feMerge>
    </filter>
  </defs>
  
  <rect width="800" height="600" fill="url(#bg)"/>
  
  <!-- Grid lines -->
  <g stroke="#ffffff" stroke-width="0.5" opacity="0.1">
    <path d="M0,100 L800,100"/>
    <path d="M0,200 L800,200"/>
    <path d="M0,300 L800,300"/>
    <path d="M0,400 L800,400"/>
    <path d="M0,500 L800,500"/>
    <path d="M100,0 L100,600"/>
    <path d="M200,0 L200,600"/>
    <path d="M300,0 L300,600"/>
    <path d="M400,0 L400,600"/>
    <path d="M500,0 L500,600"/>
    <path d="M600,0 L600,600"/>
    <path d="M700,0 L700,600"/>
  </g>
  
  <!-- Houses -->
  <g transform="translate(150, 350)" filter="url(#glow)">
    <rect x="0" y="-80" width="80" height="60" fill="url(#house)" rx="5"/>
    <path d="M-10,-80 L40,-110 L90,-80" fill="#ffffff" opacity="0.9"/>
    <rect x="15" y="-60" width="20" height="20" fill="#1a365d"/>
    <rect x="45" y="-60" width="20" height="20" fill="#1a365d"/>
    <rect x="25" y="-30" width="30" height="10" fill="#1a365d"/>
  </g>
  
  <g transform="translate(300, 320)" filter="url(#glow)">
    <rect x="0" y="-100" width="100" height="80" fill="url(#house)" rx="5"/>
    <path d="M-15,-100 L50,-140 L115,-100" fill="#ffffff" opacity="0.9"/>
    <rect x="20" y="-70" width="25" height="25" fill="#1a365d"/>
    <rect x="55" y="-70" width="25" height="25" fill="#1a365d"/>
    <rect x="35" y="-35" width="30" height="15" fill="#1a365d"/>
  </g>
  
  <g transform="translate(500, 340)" filter="url(#glow)">
    <rect x="0" y="-90" width="90" height="70" fill="url(#house)" rx="5"/>
    <path d="M-12,-90 L45,-125 L102,-90" fill="#ffffff" opacity="0.9"/>
    <rect x="18" y="-65" width="22" height="22" fill="#1a365d"/>
    <rect x="50" y="-65" width="22" height="22" fill="#1a365d"/>
    <rect x="30" y="-32" width="30" height="12" fill="#1a365d"/>
  </g>
  
  <!-- AI Brain -->
  <g transform="translate(400, 200)">
    <circle cx="0" cy="0" r="80" fill="#ffffff" opacity="0.1"/>
    <circle cx="0" cy="0" r="60" fill="none" stroke="#4ade80" stroke-width="2"/>
    <circle cx="-20" cy="-15" r="8" fill="#4ade80"/>
    <circle cx="20" cy="-15" r="8" fill="#4ade80"/>
    <circle cx="0" cy="15" r="8" fill="#4ade80"/>
    <path d="M-40,-30 Q0,-50 40,-30" stroke="#4ade80" stroke-width="2" fill="none"/>
    <path d="M-40,10 Q0,30 40,10" stroke="#4ade80" stroke-width="2" fill="none"/>
  </g>
  
  <!-- Data visualization -->
  <g transform="translate(600, 450)">
    <rect x="0" y="-40" width="8" height="40" fill="#4ade80" opacity="0.8"/>
    <rect x="15" y="-60" width="8" height="60" fill="#4ade80" opacity="0.8"/>
    <rect x="30" y="-30" width="8" height="30" fill="#4ade80" opacity="0.8"/>
    <rect x="45" y="-50" width="8" height="50" fill="#4ade80" opacity="0.8"/>
    <rect x="60" y="-35" width="8" height="35" fill="#4ade80" opacity="0.8"/>
  </g>
  
  <!-- Price tags -->
  <g font-family="Arial, sans-serif" font-size="14" fill="#ffffff">
    <text x="190" y="380" text-anchor="middle" font-weight="bold">$450K</text>
    <text x="350" y="410" text-anchor="middle" font-weight="bold">$680K</text>
    <text x="545" y="390" text-anchor="middle" font-weight="bold">$520K</text>
  </g>
  
  <!-- Title -->
  <text x="400" y="50" text-anchor="middle" font-family="Arial, sans-serif" font-size="24" font-weight="bold" fill="#ffffff">
    Real Estate AI Predictor
  </text>
  <text x="400" y="80" text-anchor="middle" font-family="Arial, sans-serif" font-size="14" fill="#ffffff" opacity="0.8">
    Machine Learning Price Analysis
  </text>
</svg>